<svg width="120" height="25" viewBox="0 0 120 25" fill="none" xmlns="http://www.w3.org/2000/svg">
<path d="M5.35156 15.1797C5.42969 15.3359 5.53906 15.4961 5.67969 15.6602C5.82812 15.8164 5.99609 15.9609 6.18359 16.0938C6.37891 16.2266 6.58984 16.3359 6.81641 16.4219C7.04297 16.5 7.27734 16.5391 7.51953 16.5391C7.85547 16.5391 8.17188 16.4102 8.46875 16.1523C8.76562 15.8867 9.02344 15.5352 9.24219 15.0977C9.46875 14.6523 9.64453 14.1484 9.76953 13.5859C9.89453 13.0156 9.95703 12.4258 9.95703 11.8164C9.95703 11.4414 9.92188 11.0859 9.85156 10.75C9.78906 10.4141 9.6875 10.1211 9.54688 9.87109C9.40625 9.62109 9.22266 9.42188 8.99609 9.27344C8.77734 9.125 8.51172 9.05078 8.19922 9.05078C7.69141 9.05078 7.22656 9.19922 6.80469 9.49609C6.38281 9.79297 6.02734 10.1719 5.73828 10.6328L5.35156 15.1797ZM0.992188 19.5742C0.882812 19.5977 0.796875 19.6094 0.734375 19.6094C0.484375 19.6094 0.359375 19.4609 0.359375 19.1641C0.359375 19.125 0.359375 19.0859 0.359375 19.0469C0.367188 19.0078 0.375 18.9648 0.382812 18.918L1.74219 2.33594C1.74219 2.3125 1.74219 2.28906 1.74219 2.26562C1.75 2.24219 1.75391 2.22266 1.75391 2.20703C1.75391 2.17578 1.75 2.14844 1.74219 2.125C1.74219 2.10156 1.74219 2.08203 1.74219 2.06641C1.74219 1.99609 1.76562 1.94141 1.8125 1.90234C1.86719 1.85547 2 1.80469 2.21094 1.75L5.50391 0.964844C5.58984 0.949219 5.70312 0.914062 5.84375 0.859375C5.98438 0.804688 6.12109 0.777344 6.25391 0.777344C6.35547 0.777344 6.44922 0.800781 6.53516 0.847656C6.62891 0.894531 6.67578 0.984375 6.67578 1.11719C6.67578 1.13281 6.67188 1.14844 6.66406 1.16406C6.66406 1.17969 6.66406 1.19531 6.66406 1.21094C6.65625 1.25 6.63672 1.42188 6.60547 1.72656C6.57422 2.03125 6.53906 2.40234 6.5 2.83984C6.46094 3.26953 6.41797 3.73438 6.37109 4.23438C6.32422 4.72656 6.28125 5.19141 6.24219 5.62891C6.20312 6.05859 6.16797 6.42578 6.13672 6.73047C6.10547 7.03516 6.08594 7.20703 6.07812 7.24609C6.64844 6.87109 7.23828 6.55859 7.84766 6.30859C8.45703 6.05078 9.06641 5.92188 9.67578 5.92188C10.4805 5.92188 11.1758 6.08984 11.7617 6.42578C12.3477 6.75391 12.832 7.19531 13.2148 7.75C13.5977 8.29688 13.8789 8.92969 14.0586 9.64844C14.2461 10.3672 14.3398 11.1094 14.3398 11.875C14.3398 12.4922 14.2812 13.1133 14.1641 13.7383C14.0547 14.3555 13.8906 14.9492 13.6719 15.5195C13.4609 16.0898 13.1914 16.625 12.8633 17.125C12.543 17.625 12.1719 18.0586 11.75 18.4258C11.3359 18.793 10.8711 19.082 10.3555 19.293C9.83984 19.5039 9.28125 19.6094 8.67969 19.6094C7.95312 19.6094 7.28906 19.4492 6.6875 19.1289C6.08594 18.8086 5.52734 18.3945 5.01172 17.8867C4.99609 18.0742 4.98438 18.2227 4.97656 18.332C4.96875 18.4414 4.94141 18.5273 4.89453 18.5898C4.85547 18.6445 4.79297 18.6914 4.70703 18.7305C4.62109 18.7617 4.49219 18.7969 4.32031 18.8359C4.23438 18.8594 4.08203 18.8984 3.86328 18.9531C3.65234 19 3.39453 19.0547 3.08984 19.1172C2.79297 19.1875 2.46094 19.2617 2.09375 19.3398C1.73438 19.418 1.36719 19.4961 0.992188 19.5742ZM22.3203 19.6094C21.2188 19.6094 20.25 19.4297 19.4141 19.0703C18.5859 18.7109 17.8906 18.2344 17.3281 17.6406C16.7656 17.0391 16.3438 16.3516 16.0625 15.5781C15.7812 14.7969 15.6406 13.9883 15.6406 13.1523C15.6406 12.3164 15.7773 11.5234 16.0508 10.7734C16.3242 10.0156 16.707 9.33984 17.1992 8.74609C17.6914 8.14453 18.2812 7.64453 18.9688 7.24609C19.6562 6.83984 20.4141 6.56641 21.2422 6.42578C21.3672 6.41797 21.4297 6.39062 21.4297 6.34375C21.4297 6.25781 21.418 6.17969 21.3945 6.10938C21.3789 6.03125 21.3711 5.96484 21.3711 5.91016C21.3711 5.82422 21.3867 5.76562 21.418 5.73438C21.4492 5.70312 21.4844 5.6875 21.5234 5.6875C23.0156 5.6875 24.2852 5.85938 25.332 6.20312C26.3789 6.53906 27.2305 7 27.8867 7.58594C28.543 8.17188 29.0195 8.86328 29.3164 9.66016C29.6133 10.457 29.7617 11.3125 29.7617 12.2266C29.7617 13.3906 29.5664 14.4297 29.1758 15.3438C28.7852 16.2578 28.25 17.0312 27.5703 17.6641C26.8984 18.2969 26.1094 18.7773 25.2031 19.1055C24.3047 19.4414 23.3438 19.6094 22.3203 19.6094ZM20.1523 13.0234C20.1523 13.4453 20.1953 13.8633 20.2812 14.2773C20.375 14.6914 20.5234 15.0664 20.7266 15.4023C20.9375 15.7383 21.2109 16.0117 21.5469 16.2227C21.8828 16.4258 22.3008 16.5273 22.8008 16.5273C23.1602 16.5117 23.4727 16.4336 23.7383 16.293C24.0117 16.1445 24.2461 15.957 24.4414 15.7305C24.6367 15.4961 24.7969 15.2344 24.9219 14.9453C25.0547 14.6562 25.1562 14.3594 25.2266 14.0547C25.3047 13.7422 25.3594 13.4375 25.3906 13.1406C25.4219 12.8438 25.4375 12.5742 25.4375 12.332C25.4375 11.9258 25.375 11.5273 25.25 11.1367C25.1328 10.7461 24.957 10.4023 24.7227 10.1055C24.4883 9.80859 24.1953 9.57031 23.8438 9.39062C23.5 9.20312 23.1016 9.10938 22.6484 9.10938C22.1797 9.10938 21.7852 9.25 21.4648 9.53125C21.1445 9.80469 20.8867 10.1445 20.6914 10.5508C20.5039 10.957 20.3672 11.3867 20.2812 11.8398C20.1953 12.2852 20.1523 12.6797 20.1523 13.0234ZM37.7188 19.6094C36.6172 19.6094 35.6484 19.4297 34.8125 19.0703C33.9844 18.7109 33.2891 18.2344 32.7266 17.6406C32.1641 17.0391 31.7422 16.3516 31.4609 15.5781C31.1797 14.7969 31.0391 13.9883 31.0391 13.1523C31.0391 12.3164 31.1758 11.5234 31.4492 10.7734C31.7227 10.0156 32.1055 9.33984 32.5977 8.74609C33.0898 8.14453 33.6797 7.64453 34.3672 7.24609C35.0547 6.83984 35.8125 6.56641 36.6406 6.42578C36.7656 6.41797 36.8281 6.39062 36.8281 6.34375C36.8281 6.25781 36.8164 6.17969 36.793 6.10938C36.7773 6.03125 36.7695 5.96484 36.7695 5.91016C36.7695 5.82422 36.7852 5.76562 36.8164 5.73438C36.8477 5.70312 36.8828 5.6875 36.9219 5.6875C38.4141 5.6875 39.6836 5.85938 40.7305 6.20312C41.7773 6.53906 42.6289 7 43.2852 7.58594C43.9414 8.17188 44.418 8.86328 44.7148 9.66016C45.0117 10.457 45.1602 11.3125 45.1602 12.2266C45.1602 13.3906 44.9648 14.4297 44.5742 15.3438C44.1836 16.2578 43.6484 17.0312 42.9688 17.6641C42.2969 18.2969 41.5078 18.7773 40.6016 19.1055C39.7031 19.4414 38.7422 19.6094 37.7188 19.6094ZM35.5508 13.0234C35.5508 13.4453 35.5938 13.8633 35.6797 14.2773C35.7734 14.6914 35.9219 15.0664 36.125 15.4023C36.3359 15.7383 36.6094 16.0117 36.9453 16.2227C37.2812 16.4258 37.6992 16.5273 38.1992 16.5273C38.5586 16.5117 38.8711 16.4336 39.1367 16.293C39.4102 16.1445 39.6445 15.957 39.8398 15.7305C40.0352 15.4961 40.1953 15.2344 40.3203 14.9453C40.4531 14.6562 40.5547 14.3594 40.625 14.0547C40.7031 13.7422 40.7578 13.4375 40.7891 13.1406C40.8203 12.8438 40.8359 12.5742 40.8359 12.332C40.8359 11.9258 40.7734 11.5273 40.6484 11.1367C40.5312 10.7461 40.3555 10.4023 40.1211 10.1055C39.8867 9.80859 39.5938 9.57031 39.2422 9.39062C38.8984 9.20312 38.5 9.10938 38.0469 9.10938C37.5781 9.10938 37.1836 9.25 36.8633 9.53125C36.543 9.80469 36.2852 10.1445 36.0898 10.5508C35.9023 10.957 35.7656 11.3867 35.6797 11.8398C35.5938 12.2852 35.5508 12.6797 35.5508 13.0234ZM52.9883 1.21094L52.5664 5.27734C52.5117 5.82422 52.4531 6.37891 52.3906 6.94141C52.3359 7.50391 52.2812 8.04297 52.2266 8.55859C52.1719 9.07422 52.1211 9.55078 52.0742 9.98828C52.0273 10.4258 51.9883 10.7852 51.957 11.0664L52.7656 10.1758L54.0781 8.64062C54.2422 8.45312 54.4023 8.26562 54.5586 8.07812C54.7148 7.89062 54.8555 7.72656 54.9805 7.58594C55.1055 7.4375 55.207 7.31641 55.2852 7.22266C55.3633 7.12109 55.4102 7.0625 55.4258 7.04688L60.1367 6.71875C60.1602 6.71094 60.1836 6.70703 60.207 6.70703C60.2383 6.70703 60.2656 6.70703 60.2891 6.70703C60.4219 6.70703 60.4883 6.74219 60.4883 6.8125C60.4883 6.86719 60.4062 6.98828 60.2422 7.17578L56.5742 11.2773C56.4102 11.457 56.2148 11.668 55.9883 11.9102C55.7695 12.1445 55.5234 12.4062 55.25 12.6953L56.9609 14.7344L59.9141 17.9102C59.9375 17.9492 59.9727 17.9805 60.0195 18.0039C60.0664 18.0195 60.1094 18.0352 60.1484 18.0508C60.1953 18.0664 60.2344 18.0859 60.2656 18.1094C60.3047 18.125 60.3242 18.1523 60.3242 18.1914C60.3242 18.2227 60.3164 18.2461 60.3008 18.2617C60.293 18.2773 60.2578 18.3086 60.1953 18.3555C60.125 18.4102 60 18.4883 59.8203 18.5898C59.6484 18.6914 59.4453 18.8047 59.2109 18.9297C58.9766 19.0547 58.7266 19.1797 58.4609 19.3047C58.1953 19.4375 57.9375 19.5547 57.6875 19.6562C57.4375 19.7656 57.207 19.8516 56.9961 19.9141C56.7852 19.9844 56.6211 20.0195 56.5039 20.0195C56.4102 20.0195 56.3164 19.9961 56.2227 19.9492C56.1367 19.9023 56.0391 19.8164 55.9297 19.6914C55.7812 19.5195 55.5938 19.293 55.3672 19.0117C55.1484 18.7383 54.9102 18.4375 54.6523 18.1094C54.3945 17.7734 54.1289 17.4297 53.8555 17.0781C53.5898 16.7188 53.332 16.3789 53.082 16.0586C52.8398 15.7305 52.6172 15.4375 52.4141 15.1797C52.2188 14.9141 52.0664 14.7031 51.957 14.5469C51.918 14.5859 51.8789 14.6172 51.8398 14.6406C51.8008 14.6562 51.7617 14.6797 51.7227 14.7109C51.6914 14.7422 51.6641 14.7812 51.6406 14.8281C51.6172 14.8672 51.6055 14.9258 51.6055 15.0039C51.6055 15.0352 51.5977 15.125 51.582 15.2734C51.5664 15.4141 51.5469 15.5859 51.5234 15.7891C51.5078 15.9844 51.4883 16.1953 51.4648 16.4219C51.4414 16.6484 51.418 16.8633 51.3945 17.0664C51.3789 17.2617 51.3633 17.4336 51.3477 17.582C51.332 17.7227 51.3242 17.8086 51.3242 17.8398C51.3242 17.8945 51.3242 17.9414 51.3242 17.9805C51.332 18.0117 51.3359 18.043 51.3359 18.0742C51.3359 18.1602 51.3047 18.2266 51.2422 18.2734C51.1875 18.3125 51.0469 18.3633 50.8203 18.4258L47.75 19.4219C47.6641 19.4531 47.5508 19.4922 47.4102 19.5391C47.2695 19.5859 47.1328 19.6094 47 19.6094C46.8906 19.6094 46.793 19.582 46.707 19.5273C46.6289 19.4727 46.5898 19.3711 46.5898 19.2227L48.0664 2.33594C48.0664 2.29688 48.0625 2.26172 48.0547 2.23047C48.0469 2.19141 48.043 2.15234 48.043 2.11328C48.043 2.04297 48.0703 1.98047 48.125 1.92578C48.1875 1.86328 48.3242 1.80469 48.5352 1.75L51.8281 0.964844C51.9141 0.949219 52.0273 0.914062 52.168 0.859375C52.3086 0.804688 52.4453 0.777344 52.5781 0.777344C52.6797 0.777344 52.7734 0.800781 52.8594 0.847656C52.9531 0.894531 53 0.984375 53 1.11719C53 1.13281 52.9961 1.14844 52.9883 1.16406C52.9883 1.17969 52.9883 1.19531 52.9883 1.21094ZM61.3086 15.7656C61.3086 15.7578 61.3047 15.7539 61.2969 15.7539C61.2969 15.7461 61.2969 15.7383 61.2969 15.7305C61.2969 15.6289 61.3516 15.5781 61.4609 15.5781C61.5312 15.5781 61.5938 15.6055 61.6484 15.6602C61.9609 15.957 62.3164 16.1992 62.7148 16.3867C63.1211 16.5742 63.5586 16.668 64.0273 16.668C64.1523 16.668 64.2969 16.6562 64.4609 16.6328C64.625 16.6016 64.7812 16.5547 64.9297 16.4922C65.0781 16.4297 65.1992 16.3477 65.293 16.2461C65.3945 16.1367 65.4453 16.0039 65.4453 15.8477C65.4453 15.6758 65.4023 15.5195 65.3164 15.3789C65.2305 15.2305 65.1172 15.1094 64.9766 15.0156C64.8984 14.9609 64.7617 14.8672 64.5664 14.7344C64.3711 14.5938 64.1602 14.4453 63.9336 14.2891C63.7148 14.1328 63.5039 13.9844 63.3008 13.8438C63.1055 13.7031 62.9688 13.6016 62.8906 13.5391C62.5391 13.2734 62.2578 13.0039 62.0469 12.7305C61.8438 12.457 61.6875 12.1758 61.5781 11.8867C61.4688 11.5898 61.3984 11.2812 61.3672 10.9609C61.3359 10.6406 61.3203 10.3008 61.3203 9.94141C61.3203 9.39453 61.4648 8.87891 61.7539 8.39453C62.043 7.91016 62.4219 7.48438 62.8906 7.11719C63.3672 6.75 63.9062 6.46094 64.5078 6.25C65.1094 6.03125 65.7227 5.92188 66.3477 5.92188C66.8633 5.92188 67.3711 6 67.8711 6.15625C68.3711 6.3125 68.8359 6.57812 69.2656 6.95312C69.3047 7.44531 69.332 7.92969 69.3477 8.40625C69.3633 8.88281 69.3867 9.38281 69.418 9.90625C69.418 10.0078 69.3945 10.0781 69.3477 10.1172C69.3008 10.1484 69.2461 10.1641 69.1836 10.1641C69.1289 10.1641 69.082 10.1445 69.043 10.1055C68.8633 9.93359 68.6797 9.76562 68.4922 9.60156C68.3047 9.42969 68.1055 9.28125 67.8945 9.15625C67.6914 9.02344 67.4727 8.91797 67.2383 8.83984C67.0039 8.75391 66.7539 8.71094 66.4883 8.71094C66.3242 8.71094 66.1602 8.72656 65.9961 8.75781C65.832 8.78125 65.6836 8.83203 65.5508 8.91016C65.418 8.98047 65.3086 9.07812 65.2227 9.20312C65.1445 9.32812 65.1055 9.48828 65.1055 9.68359C65.1055 9.91016 65.1328 10.1055 65.1875 10.2695C65.2422 10.4336 65.3711 10.5938 65.5742 10.75L67.7539 12.2266C68.1523 12.5 68.4727 12.7695 68.7148 13.0352C68.9648 13.293 69.1602 13.5508 69.3008 13.8086C69.4414 14.0664 69.5352 14.3242 69.582 14.582C69.6367 14.832 69.6641 15.082 69.6641 15.332C69.6641 16.0352 69.5 16.6562 69.1719 17.1953C68.8516 17.7266 68.4336 18.1719 67.918 18.5312C67.4023 18.8828 66.8164 19.1484 66.1602 19.3281C65.5117 19.5156 64.8594 19.6094 64.2031 19.6094C63.7031 19.6094 63.2188 19.5547 62.75 19.4453C62.2891 19.3438 61.8594 19.1836 61.4609 18.9648L61.3086 15.7656ZM78.3828 7.07031C78.4062 6.98438 78.4727 6.92969 78.582 6.90625C79.2148 6.76562 79.8633 6.62109 80.5273 6.47266C81.1914 6.32422 81.8281 6.14062 82.4375 5.92188C82.5469 5.92188 82.6016 5.96094 82.6016 6.03906L83.7969 14.0312L86.0352 6.03906C86.0664 5.96094 86.125 5.92188 86.2109 5.92188C86.2344 5.92188 86.25 5.92578 86.2578 5.93359C86.2656 5.93359 86.2812 5.93359 86.3047 5.93359C86.8906 6.16016 87.4922 6.34766 88.1094 6.49609C88.7266 6.63672 89.3398 6.77344 89.9492 6.90625C90.0977 6.9375 90.1719 7.02344 90.1719 7.16406C90.1719 7.26562 90.125 7.42188 90.0312 7.63281L86.2578 18.0859C86.1953 18.2188 86.1406 18.332 86.0938 18.4258C86.0469 18.5117 86 18.582 85.9531 18.6367C85.9062 18.6836 85.8555 18.7227 85.8008 18.7539C85.7461 18.7773 85.6797 18.7969 85.6016 18.8125C85.0078 18.9375 84.4062 19.0742 83.7969 19.2227C83.1875 19.3711 82.5547 19.5586 81.8984 19.7852C81.8828 19.7852 81.8711 19.7852 81.8633 19.7852C81.8555 19.793 81.8477 19.7969 81.8398 19.7969H81.7578C81.7188 19.7969 81.6875 19.7812 81.6641 19.75C81.6406 19.7266 81.625 19.7031 81.6172 19.6797C81.5312 19.3438 81.4336 18.9258 81.3242 18.4258C81.2148 17.9258 81.0977 17.3711 80.9727 16.7617C80.8477 16.1523 80.7148 15.5 80.5742 14.8047C80.4336 14.1094 80.2891 13.3945 80.1406 12.6602L78.6523 17.8984C78.6133 18.0391 78.5703 18.1562 78.5234 18.25C78.4844 18.3359 78.4375 18.4062 78.3828 18.4609C78.3281 18.5078 78.2695 18.543 78.207 18.5664C78.1445 18.5898 78.0742 18.6094 77.9961 18.625C77.4023 18.7422 76.8008 18.875 76.1914 19.0234C75.582 19.1797 74.9492 19.3711 74.293 19.5977C74.2773 19.5977 74.2656 19.5977 74.2578 19.5977C74.25 19.6055 74.2422 19.6094 74.2344 19.6094H74.1523C74.1133 19.6094 74.0781 19.5938 74.0469 19.5625C74.0234 19.5391 74.0117 19.5156 74.0117 19.4922C73.9023 19.1484 73.7773 18.7148 73.6367 18.1914C73.4961 17.6602 73.3438 17.0703 73.1797 16.4219C73.0234 15.7656 72.8594 15.0664 72.6875 14.3242C72.5156 13.582 72.3398 12.8281 72.1602 12.0625C71.9805 11.2969 71.8008 10.5391 71.6211 9.78906C71.4492 9.03125 71.2812 8.3125 71.1172 7.63281C71.0625 7.50781 71.0312 7.40625 71.0234 7.32812C71.0156 7.24219 71.0117 7.17188 71.0117 7.11719C71.0117 7.00781 71.0742 6.9375 71.1992 6.90625C71.8086 6.77344 72.4414 6.63672 73.0977 6.49609C73.7539 6.34766 74.375 6.16016 74.9609 5.93359C74.9844 5.92578 75.0195 5.92188 75.0664 5.92188C75.168 5.92188 75.2227 5.96094 75.2305 6.03906L76.543 14.1484L78.3828 7.07031ZM102.723 16.6445C102.715 16.6758 102.711 16.707 102.711 16.7383C102.711 16.7617 102.711 16.7852 102.711 16.8086C102.711 17.0039 102.742 17.168 102.805 17.3008C102.867 17.4258 102.934 17.5312 103.004 17.6172C103.082 17.6953 103.152 17.7617 103.215 17.8164C103.277 17.8633 103.309 17.9062 103.309 17.9453C103.309 18.0547 103.191 18.1562 102.957 18.25L99.8047 19.5977C99.7969 19.6055 99.7695 19.6094 99.7227 19.6094C99.6602 19.6094 99.5977 19.5547 99.5352 19.4453C99.4727 19.3359 99.4102 19.1953 99.3477 19.0234C99.293 18.8594 99.2383 18.6836 99.1836 18.4961C99.1367 18.3008 99.0938 18.1211 99.0547 17.957C98.5625 18.5273 98.0312 18.9453 97.4609 19.2109C96.8906 19.4766 96.3242 19.6094 95.7617 19.6094C95.1055 19.6094 94.4648 19.4648 93.8398 19.1758C93.2148 18.8867 92.6602 18.4766 92.1758 17.9453C91.6914 17.4062 91.3008 16.7578 91.0039 16C90.7148 15.2422 90.5703 14.3906 90.5703 13.4453C90.5703 12.3281 90.7305 11.3086 91.0508 10.3867C91.3789 9.46484 91.8203 8.67188 92.375 8.00781C92.9297 7.34375 93.5742 6.83203 94.3086 6.47266C95.0508 6.10547 95.8359 5.92188 96.6641 5.92188C97.25 5.92188 97.8047 6.04297 98.3281 6.28516C98.8516 6.51953 99.3477 6.82422 99.8164 7.19922C99.8633 6.96484 99.8906 6.77734 99.8984 6.63672C99.9062 6.49609 99.9219 6.38672 99.9453 6.30859C99.9766 6.23047 100.031 6.17969 100.109 6.15625C100.188 6.125 100.316 6.10156 100.496 6.08594C101.059 6.00781 101.617 5.9375 102.172 5.875C102.734 5.80469 103.32 5.75391 103.93 5.72266L102.723 16.6445ZM99.2188 12.2266C99.2969 11.7812 99.3477 11.3633 99.3711 10.9727C99.4023 10.5742 99.4258 10.2109 99.4414 9.88281C99.3164 9.78906 99.1797 9.69141 99.0312 9.58984C98.8906 9.48828 98.7344 9.39453 98.5625 9.30859C98.3984 9.21484 98.2227 9.14062 98.0352 9.08594C97.8555 9.03125 97.6641 9.00391 97.4609 9.00391C97.0391 9.00391 96.6836 9.14062 96.3945 9.41406C96.1133 9.6875 95.8828 10.0234 95.7031 10.4219C95.5312 10.8203 95.4062 11.2422 95.3281 11.6875C95.2578 12.1328 95.2227 12.5273 95.2227 12.8711C95.2227 14.1055 95.3828 15.0117 95.7031 15.5898C96.0312 16.1602 96.4844 16.4453 97.0625 16.4453C97.2969 16.4453 97.5586 16.3789 97.8477 16.2461C98.1367 16.1133 98.4297 15.9297 98.7266 15.6953L99.2188 12.2266ZM110.621 10.8203C110.574 11.5703 110.531 12.1797 110.492 12.6484C110.461 13.1172 110.434 13.5 110.41 13.7969C110.387 14.0859 110.367 14.3164 110.352 14.4883C110.336 14.6523 110.324 14.8086 110.316 14.957C110.496 15.4258 110.762 15.8086 111.113 16.1055C111.465 16.3945 111.887 16.5391 112.379 16.5391C112.809 16.5391 113.184 16.4062 113.504 16.1406C113.832 15.8672 114.102 15.5156 114.312 15.0859C114.531 14.6562 114.695 14.1758 114.805 13.6445C114.914 13.1133 114.969 12.5859 114.969 12.0625C114.969 11.6328 114.93 11.2344 114.852 10.8672C114.781 10.5 114.672 10.1836 114.523 9.91797C114.375 9.64453 114.188 9.43359 113.961 9.28516C113.742 9.12891 113.48 9.05078 113.176 9.05078C112.926 9.05078 112.676 9.10156 112.426 9.20312C112.184 9.29688 111.949 9.42188 111.723 9.57812C111.496 9.72656 111.289 9.89844 111.102 10.0938C110.922 10.2812 110.773 10.4648 110.656 10.6445L110.621 10.8203ZM110.855 7.38672C111.512 6.94141 112.199 6.58594 112.918 6.32031C113.637 6.05469 114.387 5.92188 115.168 5.92188C115.902 5.92188 116.535 6.07422 117.066 6.37891C117.605 6.67578 118.051 7.08203 118.402 7.59766C118.754 8.10547 119.012 8.69141 119.176 9.35547C119.348 10.0195 119.434 10.7148 119.434 11.4414C119.434 12.0742 119.371 12.7148 119.246 13.3633C119.121 14.0117 118.938 14.6406 118.695 15.25C118.453 15.8516 118.152 16.418 117.793 16.9492C117.434 17.4805 117.02 17.9453 116.551 18.3438C116.09 18.7344 115.574 19.043 115.004 19.2695C114.434 19.4961 113.816 19.6094 113.152 19.6094C112.566 19.6094 112.004 19.4922 111.465 19.2578C110.934 19.0234 110.434 18.7188 109.965 18.3438C109.965 18.3828 109.953 18.5273 109.93 18.7773C109.914 19.0195 109.891 19.3164 109.859 19.668C109.828 20.0195 109.793 20.3945 109.754 20.793C109.715 21.1992 109.68 21.5781 109.648 21.9297C109.617 22.2812 109.59 22.5781 109.566 22.8203C109.551 23.0703 109.543 23.2148 109.543 23.2539C109.543 23.3164 109.543 23.3672 109.543 23.4062C109.551 23.4531 109.555 23.4961 109.555 23.5352C109.555 23.5977 109.523 23.6484 109.461 23.6875C109.406 23.7344 109.277 23.7852 109.074 23.8398L105.992 24.625C105.906 24.6484 105.793 24.6836 105.652 24.7305C105.512 24.7852 105.375 24.8125 105.242 24.8125C105.133 24.8125 105.035 24.7852 104.949 24.7305C104.871 24.6758 104.832 24.5742 104.832 24.4258L106.262 7.26953C106.285 7.01172 106.312 6.83594 106.344 6.74219C106.383 6.64062 106.473 6.57422 106.613 6.54297C107.324 6.40234 108.055 6.26172 108.805 6.12109C109.555 5.97266 110.285 5.78516 110.996 5.55859C111.059 5.55859 111.094 5.57031 111.102 5.59375C111.117 5.60938 111.125 5.63672 111.125 5.67578C111.125 5.69141 111.121 5.71484 111.113 5.74609C111.113 5.77734 111.102 5.84766 111.078 5.95703C111.062 6.06641 111.035 6.23438 110.996 6.46094C110.965 6.67969 110.918 6.98828 110.855 7.38672Z" fill="white"/>
</svg>
