<svg width="126" height="38" viewBox="0 0 126 38" fill="none" xmlns="http://www.w3.org/2000/svg">
<path d="M6.35156 23.1797C6.42969 23.3359 6.53906 23.4961 6.67969 23.6602C6.82812 23.8164 6.99609 23.9609 7.18359 24.0938C7.37891 24.2266 7.58984 24.3359 7.81641 24.4219C8.04297 24.5 8.27734 24.5391 8.51953 24.5391C8.85547 24.5391 9.17188 24.4102 9.46875 24.1523C9.76562 23.8867 10.0234 23.5352 10.2422 23.0977C10.4688 22.6523 10.6445 22.1484 10.7695 21.5859C10.8945 21.0156 10.957 20.4258 10.957 19.8164C10.957 19.4414 10.9219 19.0859 10.8516 18.75C10.7891 18.4141 10.6875 18.1211 10.5469 17.8711C10.4062 17.6211 10.2227 17.4219 9.99609 17.2734C9.77734 17.125 9.51172 17.0508 9.19922 17.0508C8.69141 17.0508 8.22656 17.1992 7.80469 17.4961C7.38281 17.793 7.02734 18.1719 6.73828 18.6328L6.35156 23.1797ZM1.99219 27.5742C1.88281 27.5977 1.79688 27.6094 1.73438 27.6094C1.48438 27.6094 1.35938 27.4609 1.35938 27.1641C1.35938 27.125 1.35938 27.0859 1.35938 27.0469C1.36719 27.0078 1.375 26.9648 1.38281 26.918L2.74219 10.3359C2.74219 10.3125 2.74219 10.2891 2.74219 10.2656C2.75 10.2422 2.75391 10.2227 2.75391 10.207C2.75391 10.1758 2.75 10.1484 2.74219 10.125C2.74219 10.1016 2.74219 10.082 2.74219 10.0664C2.74219 9.99609 2.76562 9.94141 2.8125 9.90234C2.86719 9.85547 3 9.80469 3.21094 9.75L6.50391 8.96484C6.58984 8.94922 6.70312 8.91406 6.84375 8.85938C6.98438 8.80469 7.12109 8.77734 7.25391 8.77734C7.35547 8.77734 7.44922 8.80078 7.53516 8.84766C7.62891 8.89453 7.67578 8.98438 7.67578 9.11719C7.67578 9.13281 7.67188 9.14844 7.66406 9.16406C7.66406 9.17969 7.66406 9.19531 7.66406 9.21094C7.65625 9.25 7.63672 9.42188 7.60547 9.72656C7.57422 10.0312 7.53906 10.4023 7.5 10.8398C7.46094 11.2695 7.41797 11.7344 7.37109 12.2344C7.32422 12.7266 7.28125 13.1914 7.24219 13.6289C7.20312 14.0586 7.16797 14.4258 7.13672 14.7305C7.10547 15.0352 7.08594 15.207 7.07812 15.2461C7.64844 14.8711 8.23828 14.5586 8.84766 14.3086C9.45703 14.0508 10.0664 13.9219 10.6758 13.9219C11.4805 13.9219 12.1758 14.0898 12.7617 14.4258C13.3477 14.7539 13.832 15.1953 14.2148 15.75C14.5977 16.2969 14.8789 16.9297 15.0586 17.6484C15.2461 18.3672 15.3398 19.1094 15.3398 19.875C15.3398 20.4922 15.2812 21.1133 15.1641 21.7383C15.0547 22.3555 14.8906 22.9492 14.6719 23.5195C14.4609 24.0898 14.1914 24.625 13.8633 25.125C13.543 25.625 13.1719 26.0586 12.75 26.4258C12.3359 26.793 11.8711 27.082 11.3555 27.293C10.8398 27.5039 10.2812 27.6094 9.67969 27.6094C8.95312 27.6094 8.28906 27.4492 7.6875 27.1289C7.08594 26.8086 6.52734 26.3945 6.01172 25.8867C5.99609 26.0742 5.98438 26.2227 5.97656 26.332C5.96875 26.4414 5.94141 26.5273 5.89453 26.5898C5.85547 26.6445 5.79297 26.6914 5.70703 26.7305C5.62109 26.7617 5.49219 26.7969 5.32031 26.8359C5.23438 26.8594 5.08203 26.8984 4.86328 26.9531C4.65234 27 4.39453 27.0547 4.08984 27.1172C3.79297 27.1875 3.46094 27.2617 3.09375 27.3398C2.73438 27.418 2.36719 27.4961 1.99219 27.5742ZM23.3203 27.6094C22.2188 27.6094 21.25 27.4297 20.4141 27.0703C19.5859 26.7109 18.8906 26.2344 18.3281 25.6406C17.7656 25.0391 17.3438 24.3516 17.0625 23.5781C16.7812 22.7969 16.6406 21.9883 16.6406 21.1523C16.6406 20.3164 16.7773 19.5234 17.0508 18.7734C17.3242 18.0156 17.707 17.3398 18.1992 16.7461C18.6914 16.1445 19.2812 15.6445 19.9688 15.2461C20.6562 14.8398 21.4141 14.5664 22.2422 14.4258C22.3672 14.418 22.4297 14.3906 22.4297 14.3438C22.4297 14.2578 22.418 14.1797 22.3945 14.1094C22.3789 14.0312 22.3711 13.9648 22.3711 13.9102C22.3711 13.8242 22.3867 13.7656 22.418 13.7344C22.4492 13.7031 22.4844 13.6875 22.5234 13.6875C24.0156 13.6875 25.2852 13.8594 26.332 14.2031C27.3789 14.5391 28.2305 15 28.8867 15.5859C29.543 16.1719 30.0195 16.8633 30.3164 17.6602C30.6133 18.457 30.7617 19.3125 30.7617 20.2266C30.7617 21.3906 30.5664 22.4297 30.1758 23.3438C29.7852 24.2578 29.25 25.0312 28.5703 25.6641C27.8984 26.2969 27.1094 26.7773 26.2031 27.1055C25.3047 27.4414 24.3438 27.6094 23.3203 27.6094ZM21.1523 21.0234C21.1523 21.4453 21.1953 21.8633 21.2812 22.2773C21.375 22.6914 21.5234 23.0664 21.7266 23.4023C21.9375 23.7383 22.2109 24.0117 22.5469 24.2227C22.8828 24.4258 23.3008 24.5273 23.8008 24.5273C24.1602 24.5117 24.4727 24.4336 24.7383 24.293C25.0117 24.1445 25.2461 23.957 25.4414 23.7305C25.6367 23.4961 25.7969 23.2344 25.9219 22.9453C26.0547 22.6562 26.1562 22.3594 26.2266 22.0547C26.3047 21.7422 26.3594 21.4375 26.3906 21.1406C26.4219 20.8438 26.4375 20.5742 26.4375 20.332C26.4375 19.9258 26.375 19.5273 26.25 19.1367C26.1328 18.7461 25.957 18.4023 25.7227 18.1055C25.4883 17.8086 25.1953 17.5703 24.8438 17.3906C24.5 17.2031 24.1016 17.1094 23.6484 17.1094C23.1797 17.1094 22.7852 17.25 22.4648 17.5312C22.1445 17.8047 21.8867 18.1445 21.6914 18.5508C21.5039 18.957 21.3672 19.3867 21.2812 19.8398C21.1953 20.2852 21.1523 20.6797 21.1523 21.0234ZM38.7188 27.6094C37.6172 27.6094 36.6484 27.4297 35.8125 27.0703C34.9844 26.7109 34.2891 26.2344 33.7266 25.6406C33.1641 25.0391 32.7422 24.3516 32.4609 23.5781C32.1797 22.7969 32.0391 21.9883 32.0391 21.1523C32.0391 20.3164 32.1758 19.5234 32.4492 18.7734C32.7227 18.0156 33.1055 17.3398 33.5977 16.7461C34.0898 16.1445 34.6797 15.6445 35.3672 15.2461C36.0547 14.8398 36.8125 14.5664 37.6406 14.4258C37.7656 14.418 37.8281 14.3906 37.8281 14.3438C37.8281 14.2578 37.8164 14.1797 37.793 14.1094C37.7773 14.0312 37.7695 13.9648 37.7695 13.9102C37.7695 13.8242 37.7852 13.7656 37.8164 13.7344C37.8477 13.7031 37.8828 13.6875 37.9219 13.6875C39.4141 13.6875 40.6836 13.8594 41.7305 14.2031C42.7773 14.5391 43.6289 15 44.2852 15.5859C44.9414 16.1719 45.418 16.8633 45.7148 17.6602C46.0117 18.457 46.1602 19.3125 46.1602 20.2266C46.1602 21.3906 45.9648 22.4297 45.5742 23.3438C45.1836 24.2578 44.6484 25.0312 43.9688 25.6641C43.2969 26.2969 42.5078 26.7773 41.6016 27.1055C40.7031 27.4414 39.7422 27.6094 38.7188 27.6094ZM36.5508 21.0234C36.5508 21.4453 36.5938 21.8633 36.6797 22.2773C36.7734 22.6914 36.9219 23.0664 37.125 23.4023C37.3359 23.7383 37.6094 24.0117 37.9453 24.2227C38.2812 24.4258 38.6992 24.5273 39.1992 24.5273C39.5586 24.5117 39.8711 24.4336 40.1367 24.293C40.4102 24.1445 40.6445 23.957 40.8398 23.7305C41.0352 23.4961 41.1953 23.2344 41.3203 22.9453C41.4531 22.6562 41.5547 22.3594 41.625 22.0547C41.7031 21.7422 41.7578 21.4375 41.7891 21.1406C41.8203 20.8438 41.8359 20.5742 41.8359 20.332C41.8359 19.9258 41.7734 19.5273 41.6484 19.1367C41.5312 18.7461 41.3555 18.4023 41.1211 18.1055C40.8867 17.8086 40.5938 17.5703 40.2422 17.3906C39.8984 17.2031 39.5 17.1094 39.0469 17.1094C38.5781 17.1094 38.1836 17.25 37.8633 17.5312C37.543 17.8047 37.2852 18.1445 37.0898 18.5508C36.9023 18.957 36.7656 19.3867 36.6797 19.8398C36.5938 20.2852 36.5508 20.6797 36.5508 21.0234ZM53.9883 9.21094L53.5664 13.2773C53.5117 13.8242 53.4531 14.3789 53.3906 14.9414C53.3359 15.5039 53.2812 16.043 53.2266 16.5586C53.1719 17.0742 53.1211 17.5508 53.0742 17.9883C53.0273 18.4258 52.9883 18.7852 52.957 19.0664L53.7656 18.1758L55.0781 16.6406C55.2422 16.4531 55.4023 16.2656 55.5586 16.0781C55.7148 15.8906 55.8555 15.7266 55.9805 15.5859C56.1055 15.4375 56.207 15.3164 56.2852 15.2227C56.3633 15.1211 56.4102 15.0625 56.4258 15.0469L61.1367 14.7188C61.1602 14.7109 61.1836 14.707 61.207 14.707C61.2383 14.707 61.2656 14.707 61.2891 14.707C61.4219 14.707 61.4883 14.7422 61.4883 14.8125C61.4883 14.8672 61.4062 14.9883 61.2422 15.1758L57.5742 19.2773C57.4102 19.457 57.2148 19.668 56.9883 19.9102C56.7695 20.1445 56.5234 20.4062 56.25 20.6953L57.9609 22.7344L60.9141 25.9102C60.9375 25.9492 60.9727 25.9805 61.0195 26.0039C61.0664 26.0195 61.1094 26.0352 61.1484 26.0508C61.1953 26.0664 61.2344 26.0859 61.2656 26.1094C61.3047 26.125 61.3242 26.1523 61.3242 26.1914C61.3242 26.2227 61.3164 26.2461 61.3008 26.2617C61.293 26.2773 61.2578 26.3086 61.1953 26.3555C61.125 26.4102 61 26.4883 60.8203 26.5898C60.6484 26.6914 60.4453 26.8047 60.2109 26.9297C59.9766 27.0547 59.7266 27.1797 59.4609 27.3047C59.1953 27.4375 58.9375 27.5547 58.6875 27.6562C58.4375 27.7656 58.207 27.8516 57.9961 27.9141C57.7852 27.9844 57.6211 28.0195 57.5039 28.0195C57.4102 28.0195 57.3164 27.9961 57.2227 27.9492C57.1367 27.9023 57.0391 27.8164 56.9297 27.6914C56.7812 27.5195 56.5938 27.293 56.3672 27.0117C56.1484 26.7383 55.9102 26.4375 55.6523 26.1094C55.3945 25.7734 55.1289 25.4297 54.8555 25.0781C54.5898 24.7188 54.332 24.3789 54.082 24.0586C53.8398 23.7305 53.6172 23.4375 53.4141 23.1797C53.2188 22.9141 53.0664 22.7031 52.957 22.5469C52.918 22.5859 52.8789 22.6172 52.8398 22.6406C52.8008 22.6562 52.7617 22.6797 52.7227 22.7109C52.6914 22.7422 52.6641 22.7812 52.6406 22.8281C52.6172 22.8672 52.6055 22.9258 52.6055 23.0039C52.6055 23.0352 52.5977 23.125 52.582 23.2734C52.5664 23.4141 52.5469 23.5859 52.5234 23.7891C52.5078 23.9844 52.4883 24.1953 52.4648 24.4219C52.4414 24.6484 52.418 24.8633 52.3945 25.0664C52.3789 25.2617 52.3633 25.4336 52.3477 25.582C52.332 25.7227 52.3242 25.8086 52.3242 25.8398C52.3242 25.8945 52.3242 25.9414 52.3242 25.9805C52.332 26.0117 52.3359 26.043 52.3359 26.0742C52.3359 26.1602 52.3047 26.2266 52.2422 26.2734C52.1875 26.3125 52.0469 26.3633 51.8203 26.4258L48.75 27.4219C48.6641 27.4531 48.5508 27.4922 48.4102 27.5391C48.2695 27.5859 48.1328 27.6094 48 27.6094C47.8906 27.6094 47.793 27.582 47.707 27.5273C47.6289 27.4727 47.5898 27.3711 47.5898 27.2227L49.0664 10.3359C49.0664 10.2969 49.0625 10.2617 49.0547 10.2305C49.0469 10.1914 49.043 10.1523 49.043 10.1133C49.043 10.043 49.0703 9.98047 49.125 9.92578C49.1875 9.86328 49.3242 9.80469 49.5352 9.75L52.8281 8.96484C52.9141 8.94922 53.0273 8.91406 53.168 8.85938C53.3086 8.80469 53.4453 8.77734 53.5781 8.77734C53.6797 8.77734 53.7734 8.80078 53.8594 8.84766C53.9531 8.89453 54 8.98438 54 9.11719C54 9.13281 53.9961 9.14844 53.9883 9.16406C53.9883 9.17969 53.9883 9.19531 53.9883 9.21094ZM62.3086 23.7656C62.3086 23.7578 62.3047 23.7539 62.2969 23.7539C62.2969 23.7461 62.2969 23.7383 62.2969 23.7305C62.2969 23.6289 62.3516 23.5781 62.4609 23.5781C62.5312 23.5781 62.5938 23.6055 62.6484 23.6602C62.9609 23.957 63.3164 24.1992 63.7148 24.3867C64.1211 24.5742 64.5586 24.668 65.0273 24.668C65.1523 24.668 65.2969 24.6562 65.4609 24.6328C65.625 24.6016 65.7812 24.5547 65.9297 24.4922C66.0781 24.4297 66.1992 24.3477 66.293 24.2461C66.3945 24.1367 66.4453 24.0039 66.4453 23.8477C66.4453 23.6758 66.4023 23.5195 66.3164 23.3789C66.2305 23.2305 66.1172 23.1094 65.9766 23.0156C65.8984 22.9609 65.7617 22.8672 65.5664 22.7344C65.3711 22.5938 65.1602 22.4453 64.9336 22.2891C64.7148 22.1328 64.5039 21.9844 64.3008 21.8438C64.1055 21.7031 63.9688 21.6016 63.8906 21.5391C63.5391 21.2734 63.2578 21.0039 63.0469 20.7305C62.8438 20.457 62.6875 20.1758 62.5781 19.8867C62.4688 19.5898 62.3984 19.2812 62.3672 18.9609C62.3359 18.6406 62.3203 18.3008 62.3203 17.9414C62.3203 17.3945 62.4648 16.8789 62.7539 16.3945C63.043 15.9102 63.4219 15.4844 63.8906 15.1172C64.3672 14.75 64.9062 14.4609 65.5078 14.25C66.1094 14.0312 66.7227 13.9219 67.3477 13.9219C67.8633 13.9219 68.3711 14 68.8711 14.1562C69.3711 14.3125 69.8359 14.5781 70.2656 14.9531C70.3047 15.4453 70.332 15.9297 70.3477 16.4062C70.3633 16.8828 70.3867 17.3828 70.418 17.9062C70.418 18.0078 70.3945 18.0781 70.3477 18.1172C70.3008 18.1484 70.2461 18.1641 70.1836 18.1641C70.1289 18.1641 70.082 18.1445 70.043 18.1055C69.8633 17.9336 69.6797 17.7656 69.4922 17.6016C69.3047 17.4297 69.1055 17.2812 68.8945 17.1562C68.6914 17.0234 68.4727 16.918 68.2383 16.8398C68.0039 16.7539 67.7539 16.7109 67.4883 16.7109C67.3242 16.7109 67.1602 16.7266 66.9961 16.7578C66.832 16.7812 66.6836 16.832 66.5508 16.9102C66.418 16.9805 66.3086 17.0781 66.2227 17.2031C66.1445 17.3281 66.1055 17.4883 66.1055 17.6836C66.1055 17.9102 66.1328 18.1055 66.1875 18.2695C66.2422 18.4336 66.3711 18.5938 66.5742 18.75L68.7539 20.2266C69.1523 20.5 69.4727 20.7695 69.7148 21.0352C69.9648 21.293 70.1602 21.5508 70.3008 21.8086C70.4414 22.0664 70.5352 22.3242 70.582 22.582C70.6367 22.832 70.6641 23.082 70.6641 23.332C70.6641 24.0352 70.5 24.6562 70.1719 25.1953C69.8516 25.7266 69.4336 26.1719 68.918 26.5312C68.4023 26.8828 67.8164 27.1484 67.1602 27.3281C66.5117 27.5156 65.8594 27.6094 65.2031 27.6094C64.7031 27.6094 64.2188 27.5547 63.75 27.4453C63.2891 27.3438 62.8594 27.1836 62.4609 26.9648L62.3086 23.7656ZM79.3828 15.0703C79.4062 14.9844 79.4727 14.9297 79.582 14.9062C80.2148 14.7656 80.8633 14.6211 81.5273 14.4727C82.1914 14.3242 82.8281 14.1406 83.4375 13.9219C83.5469 13.9219 83.6016 13.9609 83.6016 14.0391L84.7969 22.0312L87.0352 14.0391C87.0664 13.9609 87.125 13.9219 87.2109 13.9219C87.2344 13.9219 87.25 13.9258 87.2578 13.9336C87.2656 13.9336 87.2812 13.9336 87.3047 13.9336C87.8906 14.1602 88.4922 14.3477 89.1094 14.4961C89.7266 14.6367 90.3398 14.7734 90.9492 14.9062C91.0977 14.9375 91.1719 15.0234 91.1719 15.1641C91.1719 15.2656 91.125 15.4219 91.0312 15.6328L87.2578 26.0859C87.1953 26.2188 87.1406 26.332 87.0938 26.4258C87.0469 26.5117 87 26.582 86.9531 26.6367C86.9062 26.6836 86.8555 26.7227 86.8008 26.7539C86.7461 26.7773 86.6797 26.7969 86.6016 26.8125C86.0078 26.9375 85.4062 27.0742 84.7969 27.2227C84.1875 27.3711 83.5547 27.5586 82.8984 27.7852C82.8828 27.7852 82.8711 27.7852 82.8633 27.7852C82.8555 27.793 82.8477 27.7969 82.8398 27.7969H82.7578C82.7188 27.7969 82.6875 27.7812 82.6641 27.75C82.6406 27.7266 82.625 27.7031 82.6172 27.6797C82.5312 27.3438 82.4336 26.9258 82.3242 26.4258C82.2148 25.9258 82.0977 25.3711 81.9727 24.7617C81.8477 24.1523 81.7148 23.5 81.5742 22.8047C81.4336 22.1094 81.2891 21.3945 81.1406 20.6602L79.6523 25.8984C79.6133 26.0391 79.5703 26.1562 79.5234 26.25C79.4844 26.3359 79.4375 26.4062 79.3828 26.4609C79.3281 26.5078 79.2695 26.543 79.207 26.5664C79.1445 26.5898 79.0742 26.6094 78.9961 26.625C78.4023 26.7422 77.8008 26.875 77.1914 27.0234C76.582 27.1797 75.9492 27.3711 75.293 27.5977C75.2773 27.5977 75.2656 27.5977 75.2578 27.5977C75.25 27.6055 75.2422 27.6094 75.2344 27.6094H75.1523C75.1133 27.6094 75.0781 27.5938 75.0469 27.5625C75.0234 27.5391 75.0117 27.5156 75.0117 27.4922C74.9023 27.1484 74.7773 26.7148 74.6367 26.1914C74.4961 25.6602 74.3438 25.0703 74.1797 24.4219C74.0234 23.7656 73.8594 23.0664 73.6875 22.3242C73.5156 21.582 73.3398 20.8281 73.1602 20.0625C72.9805 19.2969 72.8008 18.5391 72.6211 17.7891C72.4492 17.0312 72.2812 16.3125 72.1172 15.6328C72.0625 15.5078 72.0312 15.4062 72.0234 15.3281C72.0156 15.2422 72.0117 15.1719 72.0117 15.1172C72.0117 15.0078 72.0742 14.9375 72.1992 14.9062C72.8086 14.7734 73.4414 14.6367 74.0977 14.4961C74.7539 14.3477 75.375 14.1602 75.9609 13.9336C75.9844 13.9258 76.0195 13.9219 76.0664 13.9219C76.168 13.9219 76.2227 13.9609 76.2305 14.0391L77.543 22.1484L79.3828 15.0703ZM103.723 24.6445C103.715 24.6758 103.711 24.707 103.711 24.7383C103.711 24.7617 103.711 24.7852 103.711 24.8086C103.711 25.0039 103.742 25.168 103.805 25.3008C103.867 25.4258 103.934 25.5312 104.004 25.6172C104.082 25.6953 104.152 25.7617 104.215 25.8164C104.277 25.8633 104.309 25.9062 104.309 25.9453C104.309 26.0547 104.191 26.1562 103.957 26.25L100.805 27.5977C100.797 27.6055 100.77 27.6094 100.723 27.6094C100.66 27.6094 100.598 27.5547 100.535 27.4453C100.473 27.3359 100.41 27.1953 100.348 27.0234C100.293 26.8594 100.238 26.6836 100.184 26.4961C100.137 26.3008 100.094 26.1211 100.055 25.957C99.5625 26.5273 99.0312 26.9453 98.4609 27.2109C97.8906 27.4766 97.3242 27.6094 96.7617 27.6094C96.1055 27.6094 95.4648 27.4648 94.8398 27.1758C94.2148 26.8867 93.6602 26.4766 93.1758 25.9453C92.6914 25.4062 92.3008 24.7578 92.0039 24C91.7148 23.2422 91.5703 22.3906 91.5703 21.4453C91.5703 20.3281 91.7305 19.3086 92.0508 18.3867C92.3789 17.4648 92.8203 16.6719 93.375 16.0078C93.9297 15.3438 94.5742 14.832 95.3086 14.4727C96.0508 14.1055 96.8359 13.9219 97.6641 13.9219C98.25 13.9219 98.8047 14.043 99.3281 14.2852C99.8516 14.5195 100.348 14.8242 100.816 15.1992C100.863 14.9648 100.891 14.7773 100.898 14.6367C100.906 14.4961 100.922 14.3867 100.945 14.3086C100.977 14.2305 101.031 14.1797 101.109 14.1562C101.188 14.125 101.316 14.1016 101.496 14.0859C102.059 14.0078 102.617 13.9375 103.172 13.875C103.734 13.8047 104.32 13.7539 104.93 13.7227L103.723 24.6445ZM100.219 20.2266C100.297 19.7812 100.348 19.3633 100.371 18.9727C100.402 18.5742 100.426 18.2109 100.441 17.8828C100.316 17.7891 100.18 17.6914 100.031 17.5898C99.8906 17.4883 99.7344 17.3945 99.5625 17.3086C99.3984 17.2148 99.2227 17.1406 99.0352 17.0859C98.8555 17.0312 98.6641 17.0039 98.4609 17.0039C98.0391 17.0039 97.6836 17.1406 97.3945 17.4141C97.1133 17.6875 96.8828 18.0234 96.7031 18.4219C96.5312 18.8203 96.4062 19.2422 96.3281 19.6875C96.2578 20.1328 96.2227 20.5273 96.2227 20.8711C96.2227 22.1055 96.3828 23.0117 96.7031 23.5898C97.0312 24.1602 97.4844 24.4453 98.0625 24.4453C98.2969 24.4453 98.5586 24.3789 98.8477 24.2461C99.1367 24.1133 99.4297 23.9297 99.7266 23.6953L100.219 20.2266ZM111.621 18.8203C111.574 19.5703 111.531 20.1797 111.492 20.6484C111.461 21.1172 111.434 21.5 111.41 21.7969C111.387 22.0859 111.367 22.3164 111.352 22.4883C111.336 22.6523 111.324 22.8086 111.316 22.957C111.496 23.4258 111.762 23.8086 112.113 24.1055C112.465 24.3945 112.887 24.5391 113.379 24.5391C113.809 24.5391 114.184 24.4062 114.504 24.1406C114.832 23.8672 115.102 23.5156 115.312 23.0859C115.531 22.6562 115.695 22.1758 115.805 21.6445C115.914 21.1133 115.969 20.5859 115.969 20.0625C115.969 19.6328 115.93 19.2344 115.852 18.8672C115.781 18.5 115.672 18.1836 115.523 17.918C115.375 17.6445 115.188 17.4336 114.961 17.2852C114.742 17.1289 114.48 17.0508 114.176 17.0508C113.926 17.0508 113.676 17.1016 113.426 17.2031C113.184 17.2969 112.949 17.4219 112.723 17.5781C112.496 17.7266 112.289 17.8984 112.102 18.0938C111.922 18.2812 111.773 18.4648 111.656 18.6445L111.621 18.8203ZM111.855 15.3867C112.512 14.9414 113.199 14.5859 113.918 14.3203C114.637 14.0547 115.387 13.9219 116.168 13.9219C116.902 13.9219 117.535 14.0742 118.066 14.3789C118.605 14.6758 119.051 15.082 119.402 15.5977C119.754 16.1055 120.012 16.6914 120.176 17.3555C120.348 18.0195 120.434 18.7148 120.434 19.4414C120.434 20.0742 120.371 20.7148 120.246 21.3633C120.121 22.0117 119.938 22.6406 119.695 23.25C119.453 23.8516 119.152 24.418 118.793 24.9492C118.434 25.4805 118.02 25.9453 117.551 26.3438C117.09 26.7344 116.574 27.043 116.004 27.2695C115.434 27.4961 114.816 27.6094 114.152 27.6094C113.566 27.6094 113.004 27.4922 112.465 27.2578C111.934 27.0234 111.434 26.7188 110.965 26.3438C110.965 26.3828 110.953 26.5273 110.93 26.7773C110.914 27.0195 110.891 27.3164 110.859 27.668C110.828 28.0195 110.793 28.3945 110.754 28.793C110.715 29.1992 110.68 29.5781 110.648 29.9297C110.617 30.2812 110.59 30.5781 110.566 30.8203C110.551 31.0703 110.543 31.2148 110.543 31.2539C110.543 31.3164 110.543 31.3672 110.543 31.4062C110.551 31.4531 110.555 31.4961 110.555 31.5352C110.555 31.5977 110.523 31.6484 110.461 31.6875C110.406 31.7344 110.277 31.7852 110.074 31.8398L106.992 32.625C106.906 32.6484 106.793 32.6836 106.652 32.7305C106.512 32.7852 106.375 32.8125 106.242 32.8125C106.133 32.8125 106.035 32.7852 105.949 32.7305C105.871 32.6758 105.832 32.5742 105.832 32.4258L107.262 15.2695C107.285 15.0117 107.312 14.8359 107.344 14.7422C107.383 14.6406 107.473 14.5742 107.613 14.543C108.324 14.4023 109.055 14.2617 109.805 14.1211C110.555 13.9727 111.285 13.7852 111.996 13.5586C112.059 13.5586 112.094 13.5703 112.102 13.5938C112.117 13.6094 112.125 13.6367 112.125 13.6758C112.125 13.6914 112.121 13.7148 112.113 13.7461C112.113 13.7773 112.102 13.8477 112.078 13.957C112.062 14.0664 112.035 14.2344 111.996 14.4609C111.965 14.6797 111.918 14.9883 111.855 15.3867Z" fill="#EBBA0C"/>
<path d="M25.3607 33.7318C26.745 35.5878 28.8795 36.8683 31.3712 37.0791C35.995 37.4702 40.0594 34.0397 40.4504 29.4159L38.3577 29.2389C38.0642 32.7084 35.0177 35.2797 31.5482 34.9863C29.6353 34.8245 28.0115 33.8144 26.9779 32.3668L29.1129 30.5648L23.5311 30.0927L23.059 35.6746L25.3607 33.7318Z" fill="#EBBA0C"/>
</svg>
