<svg width="18" height="20" viewBox="0 0 18 20" fill="none" xmlns="http://www.w3.org/2000/svg">
<path id="Vector" d="M1 7H17M1 7V15.8C1 16.92 1 17.48 1.218 17.908C1.40974 18.2843 1.71569 18.5903 2.092 18.782C2.519 19 3.079 19 4.197 19H13.803C14.921 19 15.48 19 15.907 18.782C16.284 18.59 16.59 18.284 16.782 17.908C17 17.48 17 16.922 17 15.804V7M1 7V6.2C1 5.08 1 4.52 1.218 4.092C1.41 3.715 1.715 3.41 2.092 3.218C2.52 3 3.08 3 4.2 3H5M17 7V6.197C17 5.079 17 4.519 16.782 4.092C16.5899 3.71558 16.2836 3.40963 15.907 3.218C15.48 3 14.92 3 13.8 3H13M5 3H13M5 3V1M13 3V1" stroke="#B0B0B0" stroke-width="2" stroke-linecap="round" stroke-linejoin="round"/>
</svg>
