<svg width="23" height="22" viewBox="0 0 23 22" fill="none" xmlns="http://www.w3.org/2000/svg">
<path id="Vector" fill-rule="evenodd" clip-rule="evenodd" d="M12.3697 0.58103C12.2897 0.407566 12.1617 0.26066 12.0007 0.157691C11.8398 0.0547218 11.6528 0 11.4617 0C11.2707 0 11.0837 0.0547218 10.9227 0.157691C10.7618 0.26066 10.6338 0.407566 10.5537 0.58103L7.68374 6.80103L0.882741 7.60803C0.692991 7.63043 0.513632 7.70673 0.36589 7.82789C0.218148 7.94905 0.108209 8.10999 0.0490834 8.29168C-0.010042 8.47337 -0.0158783 8.6682 0.0322652 8.8531C0.0804087 9.038 0.180517 9.20525 0.320741 9.33503L5.35074 13.985L4.01574 20.705C3.97866 20.8924 3.99599 21.0864 4.06569 21.2642C4.13538 21.442 4.25452 21.5961 4.40903 21.7083C4.56353 21.8205 4.74694 21.8862 4.93757 21.8975C5.12819 21.9087 5.31807 21.8652 5.48474 21.772L11.4617 18.426L17.4387 21.772C17.6055 21.8656 17.7956 21.9094 17.9866 21.8983C18.1775 21.8871 18.3612 21.8214 18.5159 21.709C18.6706 21.5966 18.7899 21.4422 18.8595 21.264C18.9291 21.0859 18.9462 20.8916 18.9087 20.704L17.5737 13.986L22.6027 9.33503C22.743 9.20525 22.8431 9.038 22.8912 8.8531C22.9394 8.6682 22.9335 8.47337 22.8744 8.29168C22.8153 8.10999 22.7053 7.94905 22.5576 7.82789C22.4099 7.70673 22.2305 7.63043 22.0407 7.60803L15.2387 6.80003L12.3697 0.58103Z" fill="#EBBA0C"/>
</svg>
